<svg width="30" height="30" viewBox="0 0 30 30" fill="none" xmlns="http://www.w3.org/2000/svg">
<path d="M26.7188 28.125H7.96875C7.59579 28.125 7.2381 27.9768 6.97438 27.7131C6.71066 27.4494 6.5625 27.0917 6.5625 26.7188V7.5C6.5625 7.25136 6.66127 7.0129 6.83709 6.83709C7.0129 6.66127 7.25136 6.5625 7.5 6.5625H26.7188C27.0917 6.5625 27.4494 6.71066 27.7131 6.97438C27.9768 7.2381 28.125 7.59579 28.125 7.96875V26.7188C28.125 27.0917 27.9768 27.4494 27.7131 27.7131C27.4494 27.9768 27.0917 28.125 26.7188 28.125Z" fill="#FFB48A"/>
<path d="M6.5625 4.6875H23.4375V3.28125C23.4375 2.90829 23.2893 2.5506 23.0256 2.28688C22.7619 2.02316 22.4042 1.875 22.0312 1.875H3.51562C3.0805 1.875 2.6632 2.04785 2.35553 2.35553C2.04785 2.6632 1.875 3.0805 1.875 3.51562V22.0312C1.875 22.4042 2.02316 22.7619 2.28688 23.0256C2.5506 23.2893 2.90829 23.4375 3.28125 23.4375H4.6875V6.5625C4.6875 6.06522 4.88504 5.58831 5.23667 5.23667C5.58831 4.88504 6.06522 4.6875 6.5625 4.6875Z" fill="#FFB48A"/>
</svg>
