<svg width="20" height="22" viewBox="0 0 20 22" fill="none" xmlns="http://www.w3.org/2000/svg">
<path d="M4.56893 0.333427L4.97898 1.59539C5.10663 1.97897 5.322 2.32748 5.60796 2.61323C5.89391 2.89898 6.24258 3.1141 6.62625 3.24148L7.88939 3.65153L7.91531 3.6586C8.01264 3.69287 8.09694 3.75649 8.15657 3.8407C8.21621 3.92492 8.24823 4.02556 8.24823 4.12875C8.24823 4.23193 8.21621 4.33258 8.15657 4.41679C8.09694 4.501 8.01264 4.56463 7.91531 4.59889L6.65217 5.00894C6.26837 5.13633 5.91956 5.35143 5.63341 5.63717C5.34726 5.92291 5.13166 6.27142 5.00372 6.65503L4.59485 7.91582C4.56059 8.01315 4.49696 8.09745 4.41275 8.15708C4.32854 8.21671 4.22789 8.24874 4.12471 8.24874C4.02152 8.24874 3.92088 8.21671 3.83666 8.15708C3.75245 8.09745 3.68883 8.01315 3.65456 7.91582L3.24451 6.65503C3.11784 6.26993 2.90277 5.91984 2.61652 5.63277C2.33028 5.34571 1.9808 5.12964 1.59606 5.00187L0.332922 4.59182C0.23559 4.55756 0.151291 4.49393 0.0916584 4.40972C0.0320259 4.32551 0 4.22486 0 4.12168C0 4.01849 0.0320259 3.91785 0.0916584 3.83363C0.151291 3.74942 0.23559 3.6858 0.332922 3.65153L1.59606 3.24148C1.97506 3.11068 2.3187 2.89405 2.60016 2.60851C2.88161 2.32296 3.09326 1.97624 3.21859 1.59539L3.62864 0.334606C3.66265 0.236864 3.72625 0.152134 3.8106 0.0921744C3.89496 0.032215 3.99588 0 4.09937 0C4.20286 0 4.30379 0.032215 4.38814 0.0921744C4.47249 0.152134 4.53609 0.236864 4.5701 0.334606L4.56893 0.333427ZM10.3485 9.67856L9.44593 9.38634C9.17192 9.29502 8.92297 9.14109 8.71884 8.93675C8.51471 8.73242 8.36102 8.48332 8.26998 8.20921L7.9754 7.30899C7.95101 7.23939 7.90559 7.17909 7.84543 7.13643C7.78527 7.09376 7.71334 7.07085 7.63959 7.07085C7.56584 7.07085 7.49391 7.09376 7.43374 7.13643C7.37358 7.17909 7.32817 7.23939 7.30377 7.30899L7.01155 8.20921C6.92233 8.48164 6.77122 8.7297 6.57005 8.93393C6.36889 9.13816 6.12315 9.29301 5.8521 9.38634L4.9507 9.67856C4.8811 9.70296 4.8208 9.74837 4.77813 9.80853C4.73547 9.86869 4.71256 9.94062 4.71256 10.0144C4.71256 10.0881 4.73547 10.1601 4.77813 10.2202C4.8208 10.2804 4.8811 10.3258 4.9507 10.3502L5.8521 10.6436C6.12693 10.7349 6.37659 10.8893 6.58118 11.0943C6.78576 11.2993 6.93959 11.5492 7.0304 11.8243L7.32262 12.7245C7.34702 12.7941 7.39244 12.8544 7.4526 12.897C7.51276 12.9397 7.58469 12.9626 7.65844 12.9626C7.73219 12.9626 7.80412 12.9397 7.86428 12.897C7.92444 12.8544 7.96986 12.7941 7.99426 12.7245L8.28766 11.8243C8.37865 11.5499 8.53246 11.3007 8.73683 11.0963C8.94119 10.8919 9.19046 10.7381 9.46478 10.6471L10.3662 10.3549C10.4358 10.3305 10.4961 10.2851 10.5387 10.2249C10.5814 10.1648 10.6043 10.0928 10.6043 10.0191C10.6043 9.94534 10.5814 9.87341 10.5387 9.81325C10.4961 9.75309 10.4358 9.70767 10.3662 9.68327L10.3485 9.67856ZM7.6608 14.1408C7.34726 14.1406 7.04102 14.0462 6.78178 13.8698C6.52256 13.6813 6.33403 13.4326 6.2162 13.1381L5.90984 12.1931C5.85324 12.0398 5.74598 11.9105 5.60583 11.8266L2.99825 14.4318C2.61237 14.8183 2.34465 15.3067 2.22646 15.8399L1.19191 20.4942C1.17027 20.5911 1.17344 20.6918 1.20113 20.7871C1.22881 20.8824 1.28012 20.9691 1.35029 21.0393C1.42045 21.1094 1.5072 21.1608 1.60249 21.1884C1.69778 21.2161 1.79851 21.2193 1.89535 21.1977L6.52138 20.169C7.07216 20.0464 7.57656 19.7693 7.9754 19.3701L17.3795 9.96724L17.7754 10.362C17.9963 10.5829 18.1204 10.8826 18.1204 11.195C18.1204 11.5075 17.9963 11.8071 17.7754 12.0281L16.6678 13.1357C16.5573 13.2463 16.4953 13.3963 16.4954 13.5527C16.4955 13.709 16.5577 13.8589 16.6683 13.9694C16.779 14.0798 16.929 14.1418 17.0853 14.1417C17.2416 14.1416 17.3915 14.0794 17.502 13.9688L18.6084 12.8612C19.0502 12.4192 19.2984 11.8199 19.2984 11.195C19.2984 10.5701 19.0502 9.97084 18.6084 9.52892L18.2125 9.133L19.002 8.34354C19.6467 7.68359 20.0053 6.79605 19.9999 5.87343C19.9946 4.95082 19.6257 4.06751 18.9733 3.41511C18.3209 2.76271 17.4376 2.39382 16.515 2.38845C15.5923 2.38308 14.7048 2.74166 14.0448 3.38641L9.43768 7.99358C9.46478 8.04072 9.49895 8.08431 9.54137 8.12202C9.62385 8.19272 9.70633 8.25163 9.81238 8.28698L10.7091 8.58156C11.0508 8.69939 11.31 8.8997 11.4985 9.16011C11.6753 9.40755 11.7825 9.71391 11.7825 10.045C11.7825 10.3749 11.6882 10.6707 11.4997 10.9311C11.3112 11.1903 11.052 11.3789 10.7574 11.4849L9.82416 11.7913C9.72479 11.8232 9.63545 11.8804 9.56494 11.9574C9.49424 12.0399 9.43532 12.1224 9.39997 12.2284L9.1054 13.1263C8.98757 13.4562 8.79904 13.7036 8.53981 13.8922C8.28059 14.0807 7.97658 14.1396 7.6608 14.1408Z" fill="white"/>
</svg>
