<svg width="137" height="31" viewBox="0 0 137 31" fill="none" xmlns="http://www.w3.org/2000/svg">
<path d="M0 25.8346L22.7359 15.5V25.8346L11.3667 31L0 25.8346ZM11.3654 0L0 5.16537V15.5L11.368 10.3327L22.7359 5.16537L11.3654 0ZM0.780167 15.8552L10.5865 20.3153L21.957 15.1461L12.1481 10.6898L0.780167 15.8552Z" fill="url(#paint0_linear_10_458)"/>
<path d="M0 25.8346L22.7359 15.5V25.8346L11.3667 31L0 25.8346Z" fill="#FFD275"/>
<path d="M38.559 23.5754C33.8477 23.5754 30.8733 20.3286 30.8733 15.0951V15.0837C30.8733 9.85022 33.859 6.6261 38.559 6.6261C42.328 6.6261 45.098 8.97607 45.5294 12.3137L45.5408 12.4272H42.6686L42.6118 12.2115C42.135 10.3384 40.6932 9.16907 38.559 9.16907C35.6981 9.16907 33.8704 11.4509 33.8704 15.0837V15.0951C33.8704 18.7393 35.7095 21.0325 38.559 21.0325C40.6478 21.0325 42.1123 19.9086 42.6459 17.8878L42.6799 17.7743H45.5521L45.5294 17.8878C45.1094 21.2482 42.328 23.5754 38.559 23.5754ZM47.5729 23.2916V6.90991H50.3997V13.2787H50.4678C51.0922 11.8369 52.375 11.0082 54.1801 11.0082C56.7684 11.0082 58.4259 12.8927 58.4259 15.799V23.2916H55.5991V16.3552C55.5991 14.5048 54.6682 13.3922 53.0448 13.3922C51.4441 13.3922 50.3997 14.6069 50.3997 16.3552V23.2916H47.5729ZM64.2611 23.496C61.8544 23.496 60.231 22.0088 60.231 19.8632V19.8405C60.231 17.7062 61.8884 16.4233 64.806 16.2417L67.9507 16.0487V15.22C67.9507 14.0052 67.156 13.2673 65.7256 13.2673C64.386 13.2673 63.5686 13.8917 63.387 14.7772L63.3643 14.8794H60.7418L60.7532 14.7432C60.9235 12.6089 62.7739 11.0082 65.8278 11.0082C68.8362 11.0082 70.7775 12.5975 70.7775 15.0156V23.2916H67.9507V21.4412H67.8826C67.1901 22.7013 65.8505 23.496 64.2611 23.496ZM63.0464 19.7496C63.0464 20.7373 63.8638 21.339 65.1012 21.339C66.7246 21.339 67.9507 20.2605 67.9507 18.8301V17.9219L65.2034 18.0922C63.807 18.183 63.0464 18.7847 63.0464 19.7383V19.7496ZM77.5322 23.53C75.012 23.53 73.8199 22.5083 73.8199 20.0334V13.4376H72.1171V11.2579H73.8199V8.2041H76.6921V11.2579H78.9286V13.4376H76.6921V19.795C76.6921 20.9757 77.2144 21.3503 78.2474 21.3503C78.5199 21.3503 78.7356 21.3163 78.9286 21.3049V23.4279C78.5994 23.4733 78.0999 23.53 77.5322 23.53ZM86.6597 23.5641C83.1177 23.5641 80.7223 21.8271 80.5179 19.0231L80.5066 18.8641H82.55L82.5728 19.0231C82.8112 20.6692 84.4005 21.6796 86.7732 21.6796C89.1345 21.6796 90.6217 20.6124 90.6217 18.9209V18.9095C90.6217 17.4678 89.6794 16.6617 87.4316 16.1622L85.6152 15.7649C82.4138 15.061 80.9153 13.6193 80.9153 11.2239V11.2125C80.9266 8.52197 83.3107 6.63745 86.6824 6.63745C89.8838 6.63745 92.2224 8.48792 92.4041 11.1671L92.4154 11.3374H90.3719L90.3492 11.1785C90.0995 9.50964 88.7031 8.52197 86.6256 8.52197C84.4346 8.53333 83.0042 9.57776 83.0042 11.1558V11.1671C83.0042 12.5067 83.9918 13.3468 86.1261 13.8123L87.9425 14.2096C91.3029 14.9475 92.7106 16.3098 92.7106 18.8074V18.8187C92.7106 21.725 90.406 23.5641 86.6597 23.5641ZM94.7994 27.265V11.485H96.7748V13.483H96.8202C97.5581 12.1094 98.875 11.2579 100.567 11.2579C103.586 11.2579 105.584 13.6647 105.584 17.3883V17.3997C105.584 21.1233 103.564 23.5187 100.601 23.5187C98.9318 23.5187 97.5581 22.6786 96.8202 21.3163H96.7748V27.265H94.7994ZM100.181 21.7704C102.269 21.7704 103.564 20.0902 103.564 17.3997V17.3883C103.564 14.675 102.269 13.0062 100.181 13.0062C98.1825 13.0062 96.7634 14.7432 96.7634 17.3883V17.3997C96.7634 20.0334 98.1938 21.7704 100.181 21.7704ZM111.034 23.5187C108.684 23.5187 107.106 22.0996 107.106 19.954V19.9313C107.106 17.9219 108.672 16.6617 111.385 16.5028L114.769 16.3098V15.3221C114.769 13.8804 113.826 13.0062 112.18 13.0062C110.659 13.0062 109.705 13.7328 109.478 14.7886L109.456 14.8907H107.548L107.56 14.7659C107.73 12.8246 109.422 11.2579 112.203 11.2579C114.996 11.2579 116.744 12.7678 116.744 15.1292V23.2916H114.769V21.373H114.723C114.031 22.6672 112.612 23.5187 111.034 23.5187ZM109.126 19.954C109.126 21.0892 110.057 21.8044 111.476 21.8044C113.338 21.8044 114.769 20.5216 114.769 18.8074V17.8424L111.613 18.0354C110.035 18.1262 109.126 18.8301 109.126 19.9313V19.954ZM119.253 23.2916V11.485H121.228V13.483H121.274C121.671 12.1207 122.693 11.2579 124.021 11.2579C124.361 11.2579 124.657 11.3147 124.816 11.3374V13.256C124.657 13.1992 124.237 13.1425 123.76 13.1425C122.227 13.1425 121.228 14.2096 121.228 16.0033V23.2916H119.253ZM126.587 23.2916V6.90991H128.562V16.6958H128.607L133.784 11.485H136.179L131.059 16.5823L136.338 23.2916H134.045L129.663 17.7856L128.562 18.8414V23.2916H126.587Z" fill="#DD5000"/>
<defs>
<linearGradient id="paint0_linear_10_458" x1="0" y1="15.5" x2="22.7359" y2="15.5" gradientUnits="userSpaceOnUse">
<stop stop-color="#FC4A1A"/>
<stop offset="1" stop-color="#F7B733"/>
</linearGradient>
</defs>
</svg>
